<?xml version="1.0" encoding="utf-8"?>
<svg xmlns="http://www.w3.org/2000/svg" xmlns:xlink="http://www.w3.org/1999/xlink" style="margin: auto; background: none; display: block; shape-rendering: auto;" width="234px" height="234px" viewBox="0 0 100 100" preserveAspectRatio="xMidYMid">
<g transform="rotate(0 50 50)">
  <rect x="44.5" y="26.5" rx="1.54" ry="1.54" width="11" height="7" fill="#0a0a0a">
    <animate attributeName="opacity" values="1;0" keyTimes="0;1" dur="2.2222222222222223s" begin="-1.9753086419753088s" repeatCount="indefinite"></animate>
  </rect>
</g><g transform="rotate(40 50 50)">
  <rect x="44.5" y="26.5" rx="1.54" ry="1.54" width="11" height="7" fill="#0a0a0a">
    <animate attributeName="opacity" values="1;0" keyTimes="0;1" dur="2.2222222222222223s" begin="-1.7283950617283952s" repeatCount="indefinite"></animate>
  </rect>
</g><g transform="rotate(80 50 50)">
  <rect x="44.5" y="26.5" rx="1.54" ry="1.54" width="11" height="7" fill="#0a0a0a">
    <animate attributeName="opacity" values="1;0" keyTimes="0;1" dur="2.2222222222222223s" begin="-1.4814814814814816s" repeatCount="indefinite"></animate>
  </rect>
</g><g transform="rotate(120 50 50)">
  <rect x="44.5" y="26.5" rx="1.54" ry="1.54" width="11" height="7" fill="#0a0a0a">
    <animate attributeName="opacity" values="1;0" keyTimes="0;1" dur="2.2222222222222223s" begin="-1.234567901234568s" repeatCount="indefinite"></animate>
  </rect>
</g><g transform="rotate(160 50 50)">
  <rect x="44.5" y="26.5" rx="1.54" ry="1.54" width="11" height="7" fill="#0a0a0a">
    <animate attributeName="opacity" values="1;0" keyTimes="0;1" dur="2.2222222222222223s" begin="-0.9876543209876544s" repeatCount="indefinite"></animate>
  </rect>
</g><g transform="rotate(200 50 50)">
  <rect x="44.5" y="26.5" rx="1.54" ry="1.54" width="11" height="7" fill="#0a0a0a">
    <animate attributeName="opacity" values="1;0" keyTimes="0;1" dur="2.2222222222222223s" begin="-0.7407407407407408s" repeatCount="indefinite"></animate>
  </rect>
</g><g transform="rotate(240 50 50)">
  <rect x="44.5" y="26.5" rx="1.54" ry="1.54" width="11" height="7" fill="#0a0a0a">
    <animate attributeName="opacity" values="1;0" keyTimes="0;1" dur="2.2222222222222223s" begin="-0.4938271604938272s" repeatCount="indefinite"></animate>
  </rect>
</g><g transform="rotate(280 50 50)">
  <rect x="44.5" y="26.5" rx="1.54" ry="1.54" width="11" height="7" fill="#0a0a0a">
    <animate attributeName="opacity" values="1;0" keyTimes="0;1" dur="2.2222222222222223s" begin="-0.2469135802469136s" repeatCount="indefinite"></animate>
  </rect>
</g><g transform="rotate(320 50 50)">
  <rect x="44.5" y="26.5" rx="1.54" ry="1.54" width="11" height="7" fill="#0a0a0a">
    <animate attributeName="opacity" values="1;0" keyTimes="0;1" dur="2.2222222222222223s" begin="0s" repeatCount="indefinite"></animate>
  </rect>
</g>
<!-- [ldio] generated by https://loading.io/ --></svg>